<svg id="Camada_1" data-name="Camada 1" xmlns="http://www.w3.org/2000/svg" viewBox="0 0 781.86 165.1"><defs><style>.cls-1{fill:#c3dbea;}.cls-2{fill:#41ceb3;}.cls-3{fill:#11967d;}.cls-4{fill:none;stroke:#444b54;stroke-linecap:round;stroke-linejoin:round;stroke-width:4.69px;}.cls-5{fill:#fff;}</style></defs><title>conectus2018</title><path class="cls-1" d="M92.86,77.92V93a8.21,8.21,0,0,0,16.39,0V54.35a14.11,14.11,0,0,1,13.83-13.84c7.87-.16,14.46,5.93,14.46,13.38v55.82a8.21,8.21,0,0,0,16.4,0v-15c0-5.94,5-10.65,11.25-10.65s11.25,4.71,11.25,10.65v16.12c0,12.32-10.6,22.36-23.63,22.36H137.54v29.05H109.41V116.41H94.14c-13,0-23.63-10-23.63-22.36V77.92c0-5.93,5-10.64,11.26-10.64A10.85,10.85,0,0,1,92.86,77.92Z" transform="translate(-0.65 -1.65)"/><path class="cls-2" d="M117.13,47.35V67.89c0,5.93-5,10.64-11.25,10.64S94.62,73.82,94.62,67.89v-45A19.16,19.16,0,0,0,75.66,4c-10.77-.15-19.61,8.06-19.61,18.25V90.7c0,5.93-5,10.65-11.26,10.65S33.54,96.63,33.54,90.7V70.17c0-7.91-6.91-14.45-15.27-14.45S3,62.26,3,70.17v22C3,109,17.47,122.64,35.15,122.64h20.9v39.55H94.62V99.83h20.9c17.68,0,32.15-13.69,32.15-30.42V47.35c0-7.91-6.91-14.45-15.27-14.45S117.13,39.44,117.13,47.35Z" transform="translate(-0.65 -1.65)"/><path class="cls-3" d="M134.81,57.24V69.41c0,8.36-7.23,15.21-16.07,15.21H94.62V39a8,8,0,0,0-16.07,0V144.7A5.55,5.55,0,0,1,72.92,150a5.55,5.55,0,0,0-5.62,5.33v1.52a5.54,5.54,0,0,0,5.62,5.32h21.7V99.83h33.76c10.61,0,19.29-8.22,19.29-18.25V57.24a6.44,6.44,0,0,0-12.86,0Z" transform="translate(-0.65 -1.65)"/><path class="cls-4" d="M44.79,101.35c-6.27,0-11.25-4.72-11.25-10.65V70.17c0-7.91-6.91-14.45-15.27-14.45S3,62.26,3,70.17v22C3,109,17.47,122.64,35.15,122.64h20.9v39.55H94.62V99.83h20.9c17.68,0,32.15-13.69,32.15-30.42V46.9c0-7.76-6.59-14-14.79-14h-.32c-8.52,0-15.27,6.39-15.27,14.45V67.89c0,5.93-5,10.64-11.25,10.64" transform="translate(-0.65 -1.65)"/><path class="cls-4" d="M94.62,67.89v-45A19.16,19.16,0,0,0,75.66,4c-10.77-.15-19.61,8.06-19.61,18.25V90.7" transform="translate(-0.65 -1.65)"/><path class="cls-4" d="M23.9,162.19H136.42" transform="translate(-0.65 -1.65)"/><path class="cls-5" d="M161.33,166.75a4.57,4.57,0,1,0-4.82-4.56A4.7,4.7,0,0,0,161.33,166.75Z" transform="translate(-0.65 -1.65)"/><path class="cls-4" d="M147.67,57.24h6.43" transform="translate(-0.65 -1.65)"/><path class="cls-4" d="M99.93,124.62H95.11" transform="translate(-0.65 -1.65)"/><path class="cls-4" d="M90.93,9.33l4-3.81Z" transform="translate(-0.65 -1.65)"/><path class="cls-5" d="M219.56,156.17q-11.35,0-17.71-6t-6.25-16.1a31.54,31.54,0,0,1,3.7-15.55,27.16,27.16,0,0,1,9.61-10.29,23.34,23.34,0,0,1,12.38-3.62c4.25,0,7.52,1.21,9.84,3.62a12.13,12.13,0,0,1,3.59,9.08,13.38,13.38,0,0,1-2.2,7.78,6.37,6.37,0,0,1-5.56,3.18,6.07,6.07,0,0,1-3.59-1,3.29,3.29,0,0,1-1.27-2.74,8,8,0,0,1,.23-1.75c.16-.66.27-1.13.35-1.42a9.2,9.2,0,0,0,.58-3.07,2.87,2.87,0,0,0-.81-2.19,2.67,2.67,0,0,0-2.08-.77,7,7,0,0,0-5,2.3,15.26,15.26,0,0,0-3.7,6,24.44,24.44,0,0,0-1.39,8.43q0,12.71,11.69,12.7a21.49,21.49,0,0,0,10.18-2.95,42,42,0,0,0,10.88-9.09,4.13,4.13,0,0,1,3.12-1.54,2.57,2.57,0,0,1,2.32,1.32,6.14,6.14,0,0,1,.93,3.61,10.24,10.24,0,0,1-2.2,6.79,37.78,37.78,0,0,1-13.08,9.86A35.43,35.43,0,0,1,219.56,156.17ZM299.09,122a2.54,2.54,0,0,1,2.31,1.43,7.22,7.22,0,0,1,.81,3.61q0,5.27-3.36,6.24a55.14,55.14,0,0,1-15.27,2.63,27.32,27.32,0,0,1-8.68,14.79,22.15,22.15,0,0,1-14.7,5.47A21.75,21.75,0,0,1,248.28,153a20.66,20.66,0,0,1-7.41-8.44,25.73,25.73,0,0,1-2.55-11.39,31.59,31.59,0,0,1,3.36-14.78,24.85,24.85,0,0,1,9.26-10.18A23.94,23.94,0,0,1,264,104.48q8.79,0,14.12,5.81a23.51,23.51,0,0,1,6.36,14.12,74.05,74.05,0,0,0,13-2.19A7.42,7.42,0,0,1,299.09,122Zm-38,22.56a8.45,8.45,0,0,0,6.37-2.84,15.12,15.12,0,0,0,3.7-8.22,15.81,15.81,0,0,1-5.55-6,17.4,17.4,0,0,1-1.85-7.89,18.12,18.12,0,0,1,.34-3.5h-.58a9.31,9.31,0,0,0-7.75,4.27q-3,4.17-3,11.83,0,6,2.43,9.2A7.43,7.43,0,0,0,261.12,144.56Zm39.37,11.61q-4.39,0-6.25-4.38t-1.73-14a85,85,0,0,1,4.28-27.05,8.12,8.12,0,0,1,3.36-4.6,12.56,12.56,0,0,1,6.71-1.53,6.79,6.79,0,0,1,3.24.55,2.2,2.2,0,0,1,.93,2.08,39.53,39.53,0,0,1-1.74,7.88q-1.16,4.38-1.85,7.67a75.58,75.58,0,0,0-1.16,8.1,61.43,61.43,0,0,1,8.57-15.33,33.39,33.39,0,0,1,9.25-8.43,18,18,0,0,1,8.45-2.52q7.53,0,7.53,7.12,0,4.28-2.55,15.44-2.2,9.53-2.2,12.6,0,4.38,3.36,4.38,2.31,0,5.44-2.63a92.28,92.28,0,0,0,8.56-8.76,4.14,4.14,0,0,1,3.13-1.54,2.56,2.56,0,0,1,2.31,1.32,6.14,6.14,0,0,1,.93,3.61,9.73,9.73,0,0,1-2.2,6.79,49.51,49.51,0,0,1-10.77,9.53,23.09,23.09,0,0,1-13,3.72q-5.89,0-8.91-3.17t-3-9.42a64.74,64.74,0,0,1,1.62-11,54.35,54.35,0,0,0,1.51-9.53c0-1.17-.43-1.75-1.28-1.75s-2.43,1.24-4.28,3.72a60.78,60.78,0,0,0-5.55,9.64,75.2,75.2,0,0,0-4.52,12.7q-1.27,5.15-3,7C304.62,155.59,302.89,156.17,300.49,156.17Zm100.82-25a2.57,2.57,0,0,1,2.32,1.32,6.22,6.22,0,0,1,.92,3.61,9.68,9.68,0,0,1-2.2,6.79A41.48,41.48,0,0,1,390.2,152a34.62,34.62,0,0,1-16.66,4.16q-12.17,0-18.87-6.24T348,132.85a30.05,30.05,0,0,1,3.35-14,26.63,26.63,0,0,1,9.26-10.41,24.72,24.72,0,0,1,13.54-3.83q6.72,0,10.77,3.83t4.05,10.19a17.33,17.33,0,0,1-5.79,13q-5.67,5.37-19.33,8.54,2.9,5,11,5,5.2,0,11.8-3.39a39.37,39.37,0,0,0,11.58-9.09A4.1,4.1,0,0,1,401.31,131.2Zm-29.16-15.88q-4.29,0-7.3,4.71A21.44,21.44,0,0,0,362,131.42v.22a27,27,0,0,0,10.77-4.6c2.62-2,3.93-4.42,3.93-7.12a4.29,4.29,0,0,0-1.27-3.28A4.08,4.08,0,0,0,372.15,115.32Zm45.09,40.85q-11.36,0-17.71-6t-6.25-16.1A31.54,31.54,0,0,1,397,118.5a27.16,27.16,0,0,1,9.61-10.29A23.34,23.34,0,0,1,419,104.59c4.25,0,7.52,1.21,9.84,3.62a12.13,12.13,0,0,1,3.59,9.08,13.38,13.38,0,0,1-2.2,7.78,6.37,6.37,0,0,1-5.56,3.18,6.07,6.07,0,0,1-3.59-1,3.29,3.29,0,0,1-1.27-2.74,8,8,0,0,1,.23-1.75c.16-.66.27-1.13.35-1.42a9.2,9.2,0,0,0,.58-3.07,2.87,2.87,0,0,0-.81-2.19,2.67,2.67,0,0,0-2.08-.77,7,7,0,0,0-5,2.3,15.26,15.26,0,0,0-3.7,6,24.44,24.44,0,0,0-1.39,8.43q0,12.71,11.69,12.7a21.49,21.49,0,0,0,10.18-2.95,42,42,0,0,0,10.88-9.09,4.13,4.13,0,0,1,3.12-1.54,2.57,2.57,0,0,1,2.32,1.32,6.14,6.14,0,0,1,.93,3.61,10.24,10.24,0,0,1-2.2,6.79,37.78,37.78,0,0,1-13.08,9.86A35.43,35.43,0,0,1,417.24,156.17Zm72.68-25a2.57,2.57,0,0,1,2.32,1.32,6.22,6.22,0,0,1,.92,3.61,9.68,9.68,0,0,1-2.2,6.79,48.16,48.16,0,0,1-10.87,9.53,24.88,24.88,0,0,1-13.55,3.72q-23.61,0-23.61-31.43,0-4.81.35-9.75h-4.51c-2.32,0-3.9-.4-4.75-1.2a5.38,5.38,0,0,1-1.16-3.83q0-6.13,5.21-6.14h6.6a102,102,0,0,1,6-22q4.05-10,9.72-15.88T472.79,60a8.78,8.78,0,0,1,7.64,4,17.63,17.63,0,0,1,2.78,10.19q0,17-15,29.56h13a3.81,3.81,0,0,1,2.66.77,3.88,3.88,0,0,1,.81,2.85q0,7.56-13.08,7.55H457.4c-.15,3.66-.23,6.5-.23,8.55q0,11.38,2.78,16t9,4.6a14.33,14.33,0,0,0,8.8-2.85,68.65,68.65,0,0,0,9-8.54A4.12,4.12,0,0,1,489.92,131.2ZM469.67,70.53q-1.74,0-3.94,4.16a60.09,60.09,0,0,0-4.05,11.39,154.24,154.24,0,0,0-3.12,16.1A37.12,37.12,0,0,0,468.74,89.7q3.48-7,3.48-12.71C472.22,72.69,471.37,70.53,469.67,70.53Zm25.88,85.64a10.25,10.25,0,0,1-8.57-4.49,19.27,19.27,0,0,1-3.24-11.39,84.1,84.1,0,0,1,5-29.57A9.14,9.14,0,0,1,492,106c1.39-.94,3.59-1.42,6.59-1.42a5.71,5.71,0,0,1,3.48.77,2.68,2.68,0,0,1,1,2.3,44.79,44.79,0,0,1-1.27,5.91c-.78,2.7-1.39,5.15-1.86,7.34-1.54,7.66-2.31,12.78-2.31,15.33a6.84,6.84,0,0,0,.58,3.29,2.05,2.05,0,0,0,1.85.87c1.16,0,2.58-1.09,4.28-3.28a44.17,44.17,0,0,0,5.56-10,122.39,122.39,0,0,0,5.78-16.43,8.76,8.76,0,0,1,2.78-4.71,9.89,9.89,0,0,1,5.79-1.42,7.39,7.39,0,0,1,3.7.66,2.22,2.22,0,0,1,1,2.19q0,2.73-2.89,15-3.24,14-3.24,17.31a5.24,5.24,0,0,0,.93,3.28,3,3,0,0,0,2.43,1.1q2.31,0,5.44-2.63a92.28,92.28,0,0,0,8.56-8.76,4.14,4.14,0,0,1,3.13-1.54,2.56,2.56,0,0,1,2.31,1.32,6.14,6.14,0,0,1,.93,3.61,9.73,9.73,0,0,1-2.2,6.79,49.51,49.51,0,0,1-10.77,9.53,23.09,23.09,0,0,1-13,3.72q-5.55,0-8.22-4t-2.54-11.39q-2,7.46-5.91,11.5T495.55,156.17Zm63.18,2.41c-4,0-7.1-.87-9.26-2.63a7.62,7.62,0,0,1-3.13-5.91,6.59,6.59,0,0,1,2.2-4.93Q550.75,143,555,143a21.39,21.39,0,0,1,3.48.33l3.12.33a13,13,0,0,0-1.39-5.37,22.85,22.85,0,0,0-3-4.82q-1.85-2.4-3.47-4.16a67.1,67.1,0,0,1-7.18,10.73,77.53,77.53,0,0,1-7.63,8.11,6.38,6.38,0,0,1-4.4,2,4,4,0,0,1-3-1.21,4.63,4.63,0,0,1-1.16-3.17,6,6,0,0,1,1.62-4.05L533.5,140a142.38,142.38,0,0,0,9.6-12.26,64.14,64.14,0,0,0,4.17-7.56c1.46-2.92,3.36-6.9,5.67-11.93q2.2-4.83,9.14-4.82a13,13,0,0,1,4.52.54,1.83,1.83,0,0,1,1.27,1.76,7.66,7.66,0,0,1-.46,2.08,15.16,15.16,0,0,1-1.28,2.84,15.12,15.12,0,0,0-2.08,6.68,7.3,7.3,0,0,0,1.16,3.62,47.73,47.73,0,0,0,3.82,4.93,59.74,59.74,0,0,1,5.55,7.88,13.09,13.09,0,0,1,2,7,17.77,17.77,0,0,1-2.31,8.76,17.49,17.49,0,0,1-6.25,6.57A17.17,17.17,0,0,1,558.73,158.58Z" transform="translate(-0.65 -1.65)"/><path class="cls-5" d="M587.51,137a4.66,4.66,0,0,1,1.12-3.18,3.67,3.67,0,0,1,2.92-1.29h22.36a3.89,3.89,0,0,1,2.89,1.32A4.46,4.46,0,0,1,618,137a4.29,4.29,0,0,1-1.24,3.14,4,4,0,0,1-2.89,1.26H591.55a3.76,3.76,0,0,1-2.92-1.23A4.48,4.48,0,0,1,587.51,137Z" transform="translate(-0.65 -1.65)"/><path class="cls-5" d="M635,150.92V143.7a10.3,10.3,0,0,1,2.51-6.39,29.29,29.29,0,0,1,6-5.73l7.18-5.08a37.35,37.35,0,0,0,6.29-5.3,8.1,8.1,0,0,0,2.57-5.38,5.24,5.24,0,0,0-1.51-3.7,5.88,5.88,0,0,0-4.51-1.6,6.46,6.46,0,0,0-4.27,1.38,5.35,5.35,0,0,0-1.66,4.37,3.79,3.79,0,0,1-1.73,3.07,7.46,7.46,0,0,1-4.59,1.3q-5.4,0-5.4-6a12.18,12.18,0,0,1,5.25-10.3,20.16,20.16,0,0,1,12.33-3.88,21,21,0,0,1,12.78,4,12.88,12.88,0,0,1,5.49,10.93,15.52,15.52,0,0,1-2.51,8.44,25.22,25.22,0,0,1-6,6.65q-3.54,2.69-7.1,4.93a54.47,54.47,0,0,0-6.11,4.37c-1.68,1.42-2.53,2.73-2.53,3.92v.68h20.6a3.19,3.19,0,0,1,2.59,1.47,5.71,5.71,0,0,1,1.1,3.48,6,6,0,0,1-1.09,3.54,3.13,3.13,0,0,1-2.58,1.56H640.3a6.92,6.92,0,0,1-3.55-1A3,3,0,0,1,635,150.92Z" transform="translate(-0.65 -1.65)"/><path class="cls-5" d="M676.61,137.49V117.91q0-9,5.18-13.23t13.76-4.21q8.7,0,13.9,4.21t5.2,13.23v19.58q0,9-5.2,13.23t-13.9,4.21q-8.58,0-13.76-4.21T676.61,137.49Zm12.19,0q0,7.39,6.75,7.39,6.91,0,6.91-7.39V117.91q0-7.39-6.91-7.39-6.75,0-6.75,7.39Zm4-7a3.76,3.76,0,0,1-1-2.74,3.61,3.61,0,0,1,1-2.69,3.77,3.77,0,0,1,2.79-1,3.45,3.45,0,0,1,3.71,3.69,3.8,3.8,0,0,1-1,2.74,3.59,3.59,0,0,1-2.71,1A3.71,3.71,0,0,1,692.84,130.47Z" transform="translate(-0.65 -1.65)"/><path class="cls-5" d="M717.85,110.66a4.17,4.17,0,0,1,2.26-3.91l10.31-5.91a4.3,4.3,0,0,1,2.26-.52,6.91,6.91,0,0,1,3.71,1,3,3,0,0,1,1.68,2.59v47a2.86,2.86,0,0,1-1.79,2.62,10.38,10.38,0,0,1-8.59,0,2.86,2.86,0,0,1-1.8-2.62V113.32l-2.26,1.33a3.6,3.6,0,0,1-2,.6,3.33,3.33,0,0,1-2.73-1.41A5,5,0,0,1,717.85,110.66Z" transform="translate(-0.65 -1.65)"/><path class="cls-5" d="M744.17,139.8v-.88q0-10.72,9.68-13.8-7.74-2.58-7.73-11.6,0-6.6,4.64-9.83t12.62-3.22q8,0,12.61,3.22t4.65,9.83q0,9-7.74,11.6,9.61,3.07,9.61,13.8v.88q0,7.78-5.23,11.46t-13.9,3.67q-8.67,0-13.94-3.67T744.17,139.8Zm12.18-1.3q0,7.56,7,7.56t7-7.56v-1.66q0-7.18-7-7.18t-7,7.18Zm1.48-23.4q0,5.69,5.55,5.69t5.54-5.69c0-3.84-1.85-5.77-5.54-5.77S757.83,111.26,757.83,115.1Z" transform="translate(-0.65 -1.65)"/></svg>