<svg width="702" height="280" viewBox="0 0 702 280" fill="none" xmlns="http://www.w3.org/2000/svg">
<path d="M13.9 24.6018V34.5018C13.9 37.3018 16.2 39.6018 19 39.6018C21.8 39.6018 24.1 37.3018 24.1 34.5018V9.10183C24.1 4.30183 27.9 0.101835 32.7 0.00183511C37.6 -0.0981649 41.7 3.90183 41.7 8.80183V45.5018C41.7 48.3018 44 50.6018 46.8 50.6018C49.6 50.6018 51.9 48.3018 51.9 45.5018V35.6018C51.9 31.7018 55 28.6018 58.9 28.6018C62.8 28.6018 65.9 31.7018 65.9 35.6018V46.2018C65.9 54.3018 59.3 60.9018 51.2 60.9018H41.7V80.0018H24.2V49.9018H14.7C6.6 49.9018 0 43.3018 0 35.2018V24.6018C0 20.7018 3.1 17.6018 7 17.6018C10.8 17.6018 13.9 20.7018 13.9 24.6018Z" transform="translate(90 53.9991) scale(2)" fill="#C3DBEA"/>
<path d="M71 28.5014V42.0014C71 45.9014 67.9 49.0014 64 49.0014C60.1 49.0014 57 45.9014 57 42.0014V12.4014C57 5.80137 51.8 0.101367 45.2 0.00136681C38.5 -0.0986332 33 5.30137 33 12.0014V57.0014C33 60.9014 29.9 64.0014 26 64.0014C22.1 64.0014 19 60.9014 19 57.0014V43.5014C19 38.3014 14.7 34.0014 9.5 34.0014C4.3 34.0014 0 38.3014 0 43.5014V58.0014C0 69.0014 9 78.0014 20 78.0014H33V104.001H57V63.0014H70C81 63.0014 90 54.0014 90 43.0014V28.5014C90 23.3014 85.7 19.0014 80.5 19.0014C75.3 19.0014 71 23.3014 71 28.5014Z" transform="translate(6 6) scale(2)" fill="#41CEB3"/>
<path d="M42 17V25C42 30.5 37.5 35 32 35H17V5C17 2.2 14.8 0 12 0C9.2 0 7 2.2 7 5V74.5C7 76.4 5.4 78 3.5 78C1.6 78 0 79.6 0 81.5V82.5C0 84.4 1.6 86 3.5 86H17V45H38C44.6 45 50 39.6 50 33V17C50 14.8 48.2 13 46 13C43.8 13 42 14.8 42 17Z" transform="translate(86 42.0027) scale(2)" fill="#11967D"/>
<path d="M26 45C22.1 45 19 41.9 19 38V24.5C19 19.3 14.7 15 9.5 15C4.3 15 0 19.3 0 24.5V39C0 50 9 59 20 59H33V85H57V44H70C81 44 90 35 90 24V9.2C90 4.1 85.9 0 80.8 0H80.6C75.3 0 71.1 4.2 71.1 9.5C71.1 13.9 71.1 19 71.1 23C71.1 26.9 68 30 64.1 30" transform="translate(6 44.0027) scale(2)" stroke="#444B54" stroke-width="6" stroke-miterlimit="10" stroke-linecap="round" stroke-linejoin="round"/>
<path d="M24 42.0014V12.4014C24 5.80137 18.8 0.101367 12.2 0.00136681C5.5 -0.0986332 0 5.30137 0 12.0014V57.0014" transform="translate(72 6) scale(2)" stroke="#444B54" stroke-width="6" stroke-miterlimit="10" stroke-linecap="round" stroke-linejoin="round"/>
<path d="M0 0H70" transform="translate(32 214.003) scale(2)" stroke="#444B54" stroke-width="6" stroke-miterlimit="10" stroke-linecap="round" stroke-linejoin="round"/>
<path d="M3 6C4.65685 6 6 4.65685 6 3C6 1.34315 4.65685 0 3 0C1.34315 0 0 1.34315 0 3C0 4.65685 1.34315 6 3 6Z" transform="translate(197 208.003) scale(2)" fill="#444B54"/>
<path d="M2.5 2.5L0 0L2.5 2.5Z" transform="translate(6 75.0027) scale(2)" stroke="#444B54" stroke-width="6" stroke-miterlimit="10" stroke-linecap="round" stroke-linejoin="round"/>
<path d="M0 0H4" transform="translate(186 76.0027) scale(2)" stroke="#444B54" stroke-width="6" stroke-miterlimit="10" stroke-linecap="round" stroke-linejoin="round"/>
<path d="M3 3.05176e-06H3.05176e-06" transform="translate(120.6 164.603) scale(2)" stroke="#444B54" stroke-width="6" stroke-miterlimit="10" stroke-linecap="round" stroke-linejoin="round"/>
<path d="M-3.05176e-06 2.5L2.5 0L-3.05176e-06 2.5Z" transform="translate(115.4 8.00275) scale(2)" stroke="#444B54" stroke-width="6" stroke-miterlimit="10" stroke-linecap="round" stroke-linejoin="round"/>
<path d="M17.208 94.36C12.504 94.36 8.832 93.04 6.192 90.4C3.6 87.712 2.304 84.184 2.304 79.816C2.304 75.928 3.072 72.52 4.608 69.592C6.144 66.664 8.136 64.408 10.584 62.824C13.032 61.24 15.6 60.448 18.288 60.448C20.928 60.448 22.968 61.24 24.408 62.824C25.896 64.36 26.64 66.352 26.64 68.8C26.64 70.816 26.184 72.52 25.272 73.912C24.408 75.304 23.256 76 21.816 76C20.904 76 20.16 75.784 19.584 75.352C19.056 74.92 18.792 74.32 18.792 73.552C18.792 73.216 18.84 72.832 18.936 72.4C19.032 71.968 19.104 71.656 19.152 71.464C19.392 70.744 19.512 70.072 19.512 69.448C19.512 68.824 19.344 68.344 19.008 68.008C18.72 67.672 18.288 67.504 17.712 67.504C16.608 67.504 15.576 68.008 14.616 69.016C13.656 69.976 12.888 71.296 12.312 72.976C11.736 74.656 11.448 76.504 11.448 78.52C11.448 84.088 13.872 86.872 18.72 86.872C20.688 86.872 22.8 86.224 25.056 84.928C27.36 83.584 29.616 81.592 31.824 78.952C32.4 78.28 33.048 77.944 33.768 77.944C34.392 77.944 34.872 78.232 35.208 78.808C35.592 79.384 35.784 80.176 35.784 81.184C35.784 83.008 35.328 84.496 34.416 85.648C32.16 88.432 29.448 90.592 26.28 92.128C23.16 93.616 20.136 94.36 17.208 94.36ZM66.6838 71.896C67.3078 71.896 67.7878 72.208 68.1238 72.832C68.4598 73.456 68.6278 74.248 68.6278 75.208C68.6278 77.512 67.9318 78.88 66.5398 79.312C63.6598 80.32 60.4918 80.896 57.0358 81.04C56.1238 85.072 54.3238 88.312 51.6358 90.76C48.9478 93.16 45.8998 94.36 42.4918 94.36C39.6118 94.36 37.1398 93.664 35.0758 92.272C33.0598 90.88 31.5238 89.032 30.4678 86.728C29.4118 84.424 28.8838 81.928 28.8838 79.24C28.8838 75.592 29.5798 72.352 30.9718 69.52C32.3638 66.64 34.2838 64.408 36.7318 62.824C39.1798 61.192 41.8918 60.376 44.8678 60.376C48.5158 60.376 51.4438 61.648 53.6518 64.192C55.9078 66.688 57.2278 69.784 57.6118 73.48C59.8678 73.336 62.5558 72.856 65.6758 72.04C66.0598 71.944 66.3958 71.896 66.6838 71.896ZM43.0678 86.728C44.6038 86.728 45.9238 86.104 47.0278 84.856C48.1798 83.608 48.9478 81.808 49.3318 79.456C47.8438 78.448 46.6918 77.128 45.8758 75.496C45.1078 73.864 44.7238 72.136 44.7238 70.312C44.7238 69.544 44.7958 68.776 44.9398 68.008H44.5798C42.6598 68.008 41.0518 68.944 39.7558 70.816C38.5078 72.64 37.8838 75.232 37.8838 78.592C37.8838 81.232 38.3878 83.248 39.3958 84.64C40.4518 86.032 41.6758 86.728 43.0678 86.728ZM67.5602 94.36C65.7362 94.36 64.4402 93.4 63.6722 91.48C62.9522 89.56 62.5922 86.488 62.5922 82.264C62.5922 76.024 63.4802 70.096 65.2562 64.48C65.6882 63.088 66.3842 62.08 67.3442 61.456C68.3522 60.784 69.7442 60.448 71.5202 60.448C72.4802 60.448 73.1522 60.568 73.5362 60.808C73.9202 61.048 74.1122 61.504 74.1122 62.176C74.1122 62.944 73.7522 64.672 73.0322 67.36C72.5522 69.28 72.1682 70.96 71.8802 72.4C71.5922 73.84 71.3522 75.616 71.1602 77.728C72.7442 73.6 74.5202 70.24 76.4882 67.648C78.4562 65.056 80.3762 63.208 82.2482 62.104C84.1682 61 85.9202 60.448 87.5042 60.448C90.6242 60.448 92.1842 62.008 92.1842 65.128C92.1842 67 91.6562 70.384 90.6002 75.28C89.6882 79.456 89.2322 82.216 89.2322 83.56C89.2322 85.48 89.9282 86.44 91.3202 86.44C92.2802 86.44 93.4082 85.864 94.7042 84.712C96.0482 83.512 97.8242 81.592 100.032 78.952C100.608 78.28 101.256 77.944 101.976 77.944C102.6 77.944 103.08 78.232 103.416 78.808C103.8 79.384 103.992 80.176 103.992 81.184C103.992 83.104 103.536 84.592 102.624 85.648C100.56 88.192 98.3282 90.28 95.9282 91.912C93.5762 93.544 90.8882 94.36 87.8642 94.36C85.4162 94.36 83.5682 93.664 82.3202 92.272C81.0722 90.832 80.4482 88.768 80.4482 86.08C80.4482 84.736 80.7842 82.336 81.4562 78.88C82.0802 75.856 82.3922 73.768 82.3922 72.616C82.3922 71.848 82.1282 71.464 81.6002 71.464C80.9762 71.464 80.0882 72.28 78.9362 73.912C77.8322 75.496 76.6802 77.608 75.4802 80.248C74.3282 82.888 73.3922 85.672 72.6722 88.6C72.1442 90.856 71.5202 92.392 70.8002 93.208C70.1282 93.976 69.0482 94.36 67.5602 94.36ZM130.279 77.944C130.903 77.944 131.383 78.232 131.719 78.808C132.103 79.384 132.295 80.176 132.295 81.184C132.295 83.104 131.839 84.592 130.927 85.648C129.151 87.808 126.631 89.8 123.367 91.624C120.151 93.448 116.695 94.36 112.999 94.36C107.959 94.36 104.047 92.992 101.263 90.256C98.4789 87.52 97.0869 83.776 97.0869 79.024C97.0869 75.712 97.7829 72.64 99.1749 69.808C100.567 66.928 102.487 64.648 104.935 62.968C107.431 61.288 110.239 60.448 113.359 60.448C116.143 60.448 118.375 61.288 120.055 62.968C121.735 64.6 122.575 66.832 122.575 69.664C122.575 72.976 121.375 75.832 118.975 78.232C116.623 80.584 112.615 82.456 106.951 83.848C108.151 86.056 110.431 87.16 113.791 87.16C115.951 87.16 118.399 86.416 121.135 84.928C123.919 83.392 126.319 81.4 128.335 78.952C128.911 78.28 129.559 77.944 130.279 77.944ZM112.135 67.504C110.359 67.504 108.847 68.536 107.599 70.6C106.399 72.664 105.799 75.16 105.799 78.088V78.232C108.631 77.56 110.863 76.552 112.495 75.208C114.127 73.864 114.943 72.304 114.943 70.528C114.943 69.616 114.679 68.896 114.151 68.368C113.671 67.792 112.999 67.504 112.135 67.504ZM140.185 94.36C135.481 94.36 131.809 93.04 129.169 90.4C126.577 87.712 125.281 84.184 125.281 79.816C125.281 75.928 126.049 72.52 127.585 69.592C129.121 66.664 131.113 64.408 133.561 62.824C136.009 61.24 138.577 60.448 141.265 60.448C143.905 60.448 145.945 61.24 147.385 62.824C148.873 64.36 149.617 66.352 149.617 68.8C149.617 70.816 149.161 72.52 148.249 73.912C147.385 75.304 146.233 76 144.793 76C143.881 76 143.137 75.784 142.561 75.352C142.033 74.92 141.769 74.32 141.769 73.552C141.769 73.216 141.817 72.832 141.913 72.4C142.009 71.968 142.081 71.656 142.129 71.464C142.369 70.744 142.489 70.072 142.489 69.448C142.489 68.824 142.321 68.344 141.985 68.008C141.697 67.672 141.265 67.504 140.689 67.504C139.585 67.504 138.553 68.008 137.593 69.016C136.633 69.976 135.865 71.296 135.289 72.976C134.713 74.656 134.425 76.504 134.425 78.52C134.425 84.088 136.849 86.872 141.697 86.872C143.665 86.872 145.777 86.224 148.033 84.928C150.337 83.584 152.593 81.592 154.801 78.952C155.377 78.28 156.025 77.944 156.745 77.944C157.369 77.944 157.849 78.232 158.185 78.808C158.569 79.384 158.761 80.176 158.761 81.184C158.761 83.008 158.305 84.496 157.393 85.648C155.137 88.432 152.425 90.592 149.257 92.128C146.137 93.616 143.113 94.36 140.185 94.36ZM185.404 77.944C186.028 77.944 186.508 78.232 186.844 78.808C187.228 79.384 187.42 80.176 187.42 81.184C187.42 83.104 186.964 84.592 186.052 85.648C183.988 88.192 181.732 90.28 179.284 91.912C176.836 93.544 174.028 94.36 170.86 94.36C161.068 94.36 156.172 87.472 156.172 73.696C156.172 71.584 156.244 69.448 156.388 67.288H153.58C152.14 67.288 151.156 67.024 150.628 66.496C150.148 65.968 149.908 65.128 149.908 63.976C149.908 61.288 150.988 59.944 153.148 59.944H157.252C158.068 54.664 159.316 49.84 160.996 45.472C162.676 41.104 164.692 37.624 167.044 35.032C169.444 32.44 172.012 31.144 174.748 31.144C176.764 31.144 178.348 32.032 179.5 33.808C180.652 35.584 181.228 37.816 181.228 40.504C181.228 47.944 178.108 54.424 171.868 59.944H179.932C180.7 59.944 181.252 60.112 181.588 60.448C181.924 60.784 182.092 61.408 182.092 62.32C182.092 65.632 179.38 67.288 173.956 67.288H165.172C165.076 69.688 165.028 71.56 165.028 72.904C165.028 77.896 165.604 81.4 166.756 83.416C167.956 85.432 169.828 86.44 172.372 86.44C174.436 86.44 176.26 85.816 177.844 84.568C179.428 83.32 181.3 81.448 183.46 78.952C184.036 78.28 184.684 77.944 185.404 77.944ZM172.804 38.056C172.084 38.056 171.268 38.968 170.356 40.792C169.492 42.568 168.652 45.064 167.836 48.28C167.068 51.448 166.42 54.976 165.892 58.864C168.724 56.416 170.836 53.68 172.228 50.656C173.668 47.584 174.388 44.8 174.388 42.304C174.388 39.472 173.86 38.056 172.804 38.056ZM188.902 94.36C186.742 94.36 184.966 93.376 183.574 91.408C182.23 89.392 181.558 86.896 181.558 83.92C181.558 80.32 181.798 77.032 182.278 74.056C182.758 71.032 183.55 67.84 184.654 64.48C185.134 63.04 185.806 62.008 186.67 61.384C187.534 60.76 188.902 60.448 190.774 60.448C191.83 60.448 192.55 60.616 192.934 60.952C193.366 61.288 193.582 61.792 193.582 62.464C193.582 62.848 193.318 64.144 192.79 66.352C192.31 68.128 191.926 69.736 191.638 71.176C190.678 76.216 190.198 79.576 190.198 81.256C190.198 82.264 190.318 82.984 190.558 83.416C190.798 83.8 191.182 83.992 191.71 83.992C192.43 83.992 193.318 83.272 194.374 81.832C195.478 80.392 196.63 78.208 197.83 75.28C199.078 72.352 200.278 68.752 201.43 64.48C201.814 63.04 202.39 62.008 203.158 61.384C203.974 60.76 205.174 60.448 206.758 60.448C207.862 60.448 208.63 60.592 209.062 60.88C209.494 61.12 209.71 61.6 209.71 62.32C209.71 63.52 209.11 66.808 207.91 72.184C206.566 78.328 205.894 82.12 205.894 83.56C205.894 84.472 206.086 85.192 206.47 85.72C206.854 86.2 207.358 86.44 207.982 86.44C208.942 86.44 210.07 85.864 211.366 84.712C212.71 83.512 214.486 81.592 216.694 78.952C217.27 78.28 217.918 77.944 218.638 77.944C219.262 77.944 219.742 78.232 220.078 78.808C220.462 79.384 220.654 80.176 220.654 81.184C220.654 83.104 220.198 84.592 219.286 85.648C217.222 88.192 214.99 90.28 212.59 91.912C210.238 93.544 207.55 94.36 204.526 94.36C202.222 94.36 200.518 93.472 199.414 91.696C198.358 89.92 197.83 87.424 197.83 84.208C197.014 87.472 195.79 89.992 194.158 91.768C192.526 93.496 190.774 94.36 188.902 94.36ZM228.207 95.944C225.711 95.944 223.791 95.368 222.447 94.216C221.151 93.064 220.503 91.768 220.503 90.328C220.503 89.08 220.959 88 221.871 87.088C222.783 86.176 224.127 85.72 225.903 85.72C226.527 85.72 227.247 85.792 228.063 85.936C228.927 86.032 229.575 86.104 230.007 86.152C229.959 84.904 229.671 83.728 229.143 82.624C228.663 81.52 228.039 80.464 227.271 79.456C226.503 78.4 225.783 77.488 225.111 76.72C223.623 79.552 222.135 81.904 220.647 83.776C219.207 85.648 217.623 87.424 215.895 89.104C215.031 89.968 214.119 90.4 213.159 90.4C212.391 90.4 211.767 90.136 211.287 89.608C210.807 89.032 210.567 88.336 210.567 87.52C210.567 86.56 210.903 85.672 211.575 84.856L212.511 83.704C215.151 80.44 217.143 77.752 218.487 75.64C219.351 74.248 220.215 72.592 221.079 70.672C221.991 68.752 223.167 66.136 224.607 62.824C225.519 60.712 227.415 59.656 230.295 59.656C231.639 59.656 232.575 59.776 233.103 60.016C233.631 60.256 233.895 60.64 233.895 61.168C233.895 61.456 233.799 61.912 233.607 62.536C233.415 63.16 233.151 63.784 232.815 64.408C231.951 66.136 231.519 67.6 231.519 68.8C231.519 69.52 231.759 70.312 232.239 71.176C232.767 72.04 233.559 73.12 234.615 74.416C236.151 76.432 237.303 78.16 238.071 79.6C238.887 80.992 239.295 82.528 239.295 84.208C239.295 86.224 238.815 88.144 237.855 89.968C236.943 91.744 235.647 93.184 233.967 94.288C232.287 95.392 230.367 95.944 228.207 95.944Z" transform="translate(222 26) scale(2)" fill="#444B54"/>
</svg>
