<?xml version="1.0" ?><svg id="Layer_1" style="enable-background:new 0 0 128 128;" version="1.1" viewBox="0 0 128 128" xml:space="preserve" xmlns="http://www.w3.org/2000/svg" xmlns:xlink="http://www.w3.org/1999/xlink"><style type="text/css">
	.st0{fill:#FF5576;}
	.st1{fill:#FFFFFF;}
	.st2{fill:#FFF0B3;}
	.st3{fill:#F2B630;}
	.st4{fill:none;stroke:#444B54;stroke-width:6;stroke-linecap:round;stroke-linejoin:round;stroke-miterlimit:10;}
	.st5{fill:#88E3FF;}
	.st6{fill:none;stroke:#444B54;stroke-width:6;stroke-linecap:round;stroke-linejoin:round;}
	.st7{fill:none;stroke:#444B54;stroke-width:6;stroke-linecap:round;stroke-linejoin:round;stroke-dasharray:6.1978,16.5275;}
	.st8{fill:#C3DBEA;}
	.st9{fill:#444B54;}
	.st10{fill:#D4D3DD;}
	.st11{fill:#8888AA;}
	.st12{fill:#E6E6EF;}
	.st13{fill:#B5B4C1;}
	.st14{fill:#B2F9EB;}
	.st15{fill:#2DBDA4;}
	.st16{fill:#11967D;}
	.st17{fill:#41CEB3;}
	.st18{fill:#146B8E;}
	.st19{fill:#6E6E8E;}
	.st20{fill:#F2F2F4;}
	.st21{fill:none;stroke:#FF5576;stroke-width:6;stroke-linecap:round;stroke-linejoin:round;stroke-miterlimit:10;}
	.st22{fill:#228EC4;}
</style><path class="st0" d="M81.5,19H102c2.8,0,5,2.2,5,5v85c0,2.8-2.2,5-5,5H31c-2.8,0-5-2.2-5-5V24c0-2.8,2.2-5,5-5h10.5"/><rect class="st1" height="75" width="61" x="36" y="25"/><path class="st4" d="M81.5,19H102c2.8,0,5,2.2,5,5v85c0,2.8-2.2,5-5,5H31c-2.8,0-5-2.2-5-5V24c0-2.8,2.2-5,5-5h10.5"/><path class="st1" d="M74.5,25.5h-16c-3.9,0-7-3.1-7-7v0c0-3.9,3.1-7,7-7h16c3.9,0,7,3.1,7,7v0C81.5,22.4,78.4,25.5,74.5,25.5z"/><path class="st4" d="M74.5,25.5h-16c-3.9,0-7-3.1-7-7v0c0-3.9,3.1-7,7-7h16c3.9,0,7,3.1,7,7v0C81.5,22.4,78.4,25.5,74.5,25.5z"/></svg>