<?xml version="1.0" ?><svg id="Layer_1" style="enable-background:new 0 0 128 128;" version="1.1" viewBox="0 0 128 128" xml:space="preserve" xmlns="http://www.w3.org/2000/svg" xmlns:xlink="http://www.w3.org/1999/xlink"><style type="text/css">
	.st0{fill:#FF5576;}
	.st1{fill:#FFFFFF;}
	.st2{fill:#FFF0B3;}
	.st3{fill:#F2B630;}
	.st4{fill:none;stroke:#444B54;stroke-width:6;stroke-linecap:round;stroke-linejoin:round;stroke-miterlimit:10;}
	.st5{fill:#88E3FF;}
	.st6{fill:none;stroke:#444B54;stroke-width:6;stroke-linecap:round;stroke-linejoin:round;}
	.st7{fill:none;stroke:#444B54;stroke-width:6;stroke-linecap:round;stroke-linejoin:round;stroke-dasharray:6.1978,16.5275;}
	.st8{fill:#C3DBEA;}
	.st9{fill:#444B54;}
	.st10{fill:#D4D3DD;}
	.st11{fill:#8888AA;}
	.st12{fill:#E6E6EF;}
	.st13{fill:#B5B4C1;}
	.st14{fill:#B2F9EB;}
	.st15{fill:#2DBDA4;}
	.st16{fill:#11967D;}
	.st17{fill:#41CEB3;}
	.st18{fill:#146B8E;}
	.st19{fill:#6E6E8E;}
	.st20{fill:#F2F2F4;}
	.st21{fill:none;stroke:#FF5576;stroke-width:6;stroke-linecap:round;stroke-linejoin:round;stroke-miterlimit:10;}
	.st22{fill:#228EC4;}
</style><rect class="st1" height="12" width="45" x="13.5" y="102"/><rect class="st1" height="12" width="45" x="69.5" y="102"/><path class="st5" d="M109.5,102l-7-47h-5V40c0-2.8-2.2-5-5-5h-4V23c0-1.1-0.9-2-2-2h-14c-1.1,0-2,0.9-2,2v12h-13V23c0-1.1-0.9-2-2-2  h-14c-1.1,0-2,0.9-2,2v12h-4c-2.8,0-5,2.2-5,5v15h-5l-7,47h5v12h35v-12h-5V55h21v47h5v12h35v-12H109.5z"/><path class="st1" d="M20,92c12.3-0.1,22.5-30.5,25-71h-3.5c-1.1,0-2,0.9-2,2v12h-4c-2.8,0-5,2.2-5,5v15h-5L20,92z"/><g><path class="st18" d="M53.5,55h-9v29c0,5.5-4.5,10-10,10h-3.4c-2,0-3.6,1.4-3.9,3.4l0,0.1c-0.4,2.4,1.5,4.5,3.9,4.5h17.4v12h10v-12   h-5V55z"/><path class="st18" d="M109.5,102l-7-47h-5V40c0-2.8-2.2-5-5-5h-6c2.8,0,5,2.2,5,5v15h-17v19.9c10.1-1,18-9.5,18-19.9h1.2l4.1,27.5   c0.9,6-3.8,11.5-9.9,11.5h-1.4c-2.2,0-4,1.8-4,4c0,2.2,1.8,4,4,4h18v12h10v-12H109.5z"/></g><rect class="st4" height="12" width="45" x="13.5" y="102"/><polyline class="st4" points="53.5,55 53.5,102 18.5,102 25.5,55 37.5,55 "/><path class="st4" d="M39.5,23c0-1.1,0.9-2,2-2h14c1.1,0,2,0.9,2,2v12"/><path class="st4" d="M70.5,35V23c0-1.1,0.9-2,2-2h14c1.1,0,2,0.9,2,2v12"/><path class="st4" d="M30.5,47v-7c0-2.8,2.2-5,5-5h57c2.8,0,5,2.2,5,5v7"/><polygon class="st4" points="109.5,102 74.5,102 74.5,55 102.5,55 "/><rect class="st4" height="12" width="45" x="69.5" y="102"/><path class="st5" d="M72.5,65h-17c-5.5,0-10-4.5-10-10v0c0-5.5,4.5-10,10-10h17c5.5,0,10,4.5,10,10v0C82.5,60.5,78,65,72.5,65z"/><path class="st4" d="M72.5,65h-17c-5.5,0-10-4.5-10-10v0c0-5.5,4.5-10,10-10h17c5.5,0,10,4.5,10,10v0C82.5,60.5,78,65,72.5,65z"/></svg>