<?xml version="1.0" ?><svg id="Layer_1" style="enable-background:new 0 0 128 128;" version="1.1" viewBox="0 0 128 128" xml:space="preserve" xmlns="http://www.w3.org/2000/svg" xmlns:xlink="http://www.w3.org/1999/xlink"><style type="text/css">
	.st0{fill:#FF5576;}
	.st1{fill:#FFFFFF;}
	.st2{fill:#FFF0B3;}
	.st3{fill:#F2B630;}
	.st4{fill:none;stroke:#444B54;stroke-width:6;stroke-linecap:round;stroke-linejoin:round;stroke-miterlimit:10;}
	.st5{fill:#88E3FF;}
	.st6{fill:none;stroke:#444B54;stroke-width:6;stroke-linecap:round;stroke-linejoin:round;}
	.st7{fill:none;stroke:#444B54;stroke-width:6;stroke-linecap:round;stroke-linejoin:round;stroke-dasharray:6.1978,16.5275;}
	.st8{fill:#C3DBEA;}
	.st9{fill:#444B54;}
	.st10{fill:#D4D3DD;}
	.st11{fill:#8888AA;}
	.st12{fill:#E6E6EF;}
	.st13{fill:#B5B4C1;}
	.st14{fill:#B2F9EB;}
	.st15{fill:#2DBDA4;}
	.st16{fill:#11967D;}
	.st17{fill:#41CEB3;}
	.st18{fill:#146B8E;}
	.st19{fill:#6E6E8E;}
	.st20{fill:#F2F2F4;}
	.st21{fill:none;stroke:#FF5576;stroke-width:6;stroke-linecap:round;stroke-linejoin:round;stroke-miterlimit:10;}
	.st22{fill:#228EC4;}
</style><path class="st19" d="M109,109H39c-5.5,0-10-4.5-10-10V29c0-5.5,4.5-10,10-10h70c5.5,0,10,4.5,10,10v70C119,104.5,114.5,109,109,109  z"/><path class="st10" d="M89,109H19c-5.5,0-10-4.5-10-10V29c0-5.5,4.5-10,10-10h70c5.5,0,10,4.5,10,10v70C99,104.5,94.5,109,89,109z"/><path class="st20" d="M19,97V31c0-1.1,0.9-2,2-2h66c1.1,0,2,0.9,2,2v66c0,1.1-0.9,2-2,2H21C19.9,99,19,98.1,19,97z"/><path class="st4" d="M89,19h20c5.5,0,10,4.5,10,10"/><path class="st4" d="M119,29v70c0,5.5-4.5,10-10,10v5"/><path class="st4" d="M89,109v5"/><path class="st4" d="M19,109v5"/><circle class="st11" cx="79" cy="39" r="7"/><circle class="st9" cx="79" cy="39" r="3"/><path class="st4" d="M104,39h-5V29c0-5.5-4.5-10-10-10H19c-5.5,0-10,4.5-10,10v70c0,5.5,4.5,10,10,10h70c5.5,0,10-4.5,10-10V89h5"/><line class="st4" x1="99" x2="99" y1="50" y2="78"/><g><ellipse class="st1" cx="54" cy="64" rx="10" ry="10" transform="matrix(0.7071 -0.7071 0.7071 0.7071 -29.4386 56.9289)"/><g><ellipse class="st4" cx="54" cy="64" rx="10" ry="10" transform="matrix(0.7071 -0.7071 0.7071 0.7071 -29.4386 56.9289)"/><line class="st4" x1="46.9" x2="39.9" y1="56.9" y2="49.9"/><line class="st4" x1="61.1" x2="68.1" y1="56.9" y2="49.9"/><line class="st4" x1="61.1" x2="68.1" y1="71.1" y2="78.1"/><line class="st4" x1="46.9" x2="39.9" y1="71.1" y2="78.1"/></g></g></svg>